ffmpeg version 2024-01-04-git-33698ef891-full_build-www.gyan.dev Copyright (c) 2000-2024 the FFmpeg developers
  built with gcc 12.2.0 (Rev10, Built by MSYS2 project)
  configuration: --enable-gpl --enable-version3 --enable-static --pkg-config=pkgconf --disable-w32threads --disable-autodetect --enable-fontconfig --enable-iconv --enable-gnutls --enable-libxml2 --enable-gmp --enable-bzlib --enable-lzma --enable-libsnappy --enable-zlib --enable-librist --enable-libsrt --enable-libssh --enable-libzmq --enable-avisynth --enable-libbluray --enable-libcaca --enable-sdl2 --enable-libaribb24 --enable-libaribcaption --enable-libdav1d --enable-libdavs2 --enable-libuavs3d --enable-libzvbi --enable-librav1e --enable-libsvtav1 --enable-libwebp --enable-libx264 --enable-libx265 --enable-libxavs2 --enable-libxvid --enable-libaom --enable-libjxl --enable-libopenjpeg --enable-libvpx --enable-mediafoundation --enable-libass --enable-frei0r --enable-libfreetype --enable-libfribidi --enable-libharfbuzz --enable-liblensfun --enable-libvidstab --enable-libvmaf --enable-libzimg --enable-amf --enable-cuda-llvm --enable-cuvid --enable-ffnvcodec --enable-nvdec --enable-nvenc --enable-dxva2 --enable-d3d11va --enable-libvpl --enable-libshaderc --enable-vulkan --enable-libplacebo --enable-opencl --enable-libcdio --enable-libgme --enable-libmodplug --enable-libopenmpt --enable-libopencore-amrwb --enable-libmp3lame --enable-libshine --enable-libtheora --enable-libtwolame --enable-libvo-amrwbenc --enable-libcodec2 --enable-libilbc --enable-libgsm --enable-libopencore-amrnb --enable-libopus --enable-libspeex --enable-libvorbis --enable-ladspa --enable-libbs2b --enable-libflite --enable-libmysofa --enable-librubberband --enable-libsoxr --enable-chromaprint
  libavutil      58. 36.101 / 58. 36.101
  libavcodec     60. 37.100 / 60. 37.100
  libavformat    60. 20.100 / 60. 20.100
  libavdevice    60.  4.100 / 60.  4.100
  libavfilter     9. 16.100 /  9. 16.100
  libswscale      7.  6.100 /  7.  6.100
  libswresample   4. 13.100 /  4. 13.100
  libpostproc    57.  4.100 / 57.  4.100
-vsync is deprecated. Use -fps_mode
Input #0, mov,mp4,m4a,3gp,3g2,mj2, from 'E:/projects/mediapipe/data/video_patients/20170503_Ермоленко.mov':
  Metadata:
    major_brand     : qt  
    minor_version   : 512
    compatible_brands: qt  
    encoder         : Lavf57.82.100
  Duration: 00:01:59.10, start: 0.000000, bitrate: 7541 kb/s
  Stream #0:0[0x1](rus): Audio: aac (LC) (mp4a / 0x6134706D), 48000 Hz, stereo, fltp, 192 kb/s (default)
      Metadata:
        handler_name    : SoundHandler
        vendor_id       : [0][0][0][0]
  Stream #0:1[0x2](rus): Video: h264 (High) (avc1 / 0x31637661), yuv420p(progressive), 1920x1080, 7344 kb/s, 24 fps, 24 tbr, 12288 tbn (default)
      Metadata:
        handler_name    : VideoHandler
        vendor_id       : FFMP
        encoder         : Lavc57.106.101 libx264
Stream mapping:
  Stream #0:1 -> #0:0 (h264 (native) -> h264 (libx264))
  Stream #0:0 -> #0:1 (aac (native) -> aac (native))
Press [q] to stop, [?] for help
[libx264 @ 000001eb5cd60840] using cpu capabilities: MMX2 SSE2Fast SSSE3 SSE4.2 AVX
[libx264 @ 000001eb5cd60840] profile High, level 3.1, 4:2:0, 8-bit
[libx264 @ 000001eb5cd60840] 264 - core 164 r3172 c1c9931 - H.264/MPEG-4 AVC codec - Copyleft 2003-2023 - http://www.videolan.org/x264.html - options: cabac=1 ref=1 deblock=1:0:0 analyse=0x3:0x113 me=hex subme=4 psy=1 psy_rd=1.00:0.00 mixed_ref=0 me_range=16 chroma_me=1 trellis=1 8x8dct=1 cqm=0 deadzone=21,11 fast_pskip=1 chroma_qp_offset=0 threads=6 lookahead_threads=1 sliced_threads=0 nr=0 decimate=1 interlaced=0 bluray_compat=0 constrained_intra=0 bframes=0 weightp=0 keyint=1 keyint_min=1 scenecut=0 intra_refresh=0 rc=crf mbtree=0 crf=28.0 qcomp=0.60 qpmin=0 qpmax=69 qpstep=4 ip_ratio=1.40 aq=1:1.00
Output #0, mp4, to 'E:\projects\my_github\paresis_detection\application\app_data\_temp_ffmpeg.mp4':
  Metadata:
    major_brand     : qt  
    minor_version   : 512
    compatible_brands: qt  
    encoder         : Lavf60.20.100
  Stream #0:0(rus): Video: h264 (avc1 / 0x31637661), yuv420p(progressive), 1280x720, q=2-31, 24 fps, 12288 tbn (default)
      Metadata:
        handler_name    : VideoHandler
        vendor_id       : FFMP
        encoder         : Lavc60.37.100 libx264
      Side data:
        cpb: bitrate max/min/avg: 0/0/0 buffer size: 0 vbv_delay: N/A
  Stream #0:1(rus): Audio: aac (LC) (mp4a / 0x6134706D), 48000 Hz, stereo, fltp, 128 kb/s (default)
      Metadata:
        handler_name    : SoundHandler
        vendor_id       : [0][0][0][0]
        encoder         : Lavc60.37.100 aac
frame=   69 fps=0.0 q=32.0 size=     512kB time=00:00:02.87 bitrate=1459.0kbits/s speed=5.48x    frame=  155 fps=149 q=32.0 size=    1280kB time=00:00:06.33 bitrate=1655.7kbits/s speed=6.08x    frame=  242 fps=153 q=32.0 size=    2048kB time=00:00:09.91 bitrate=1691.9kbits/s speed=6.28x    frame=  333 fps=157 q=32.0 size=    2816kB time=00:00:13.58 bitrate=1698.3kbits/s speed=6.39x    frame=  414 fps=154 q=32.0 size=    3584kB time=00:00:17.25 bitrate=1702.1kbits/s speed=6.41x    frame=  498 fps=155 q=32.0 size=    4352kB time=00:00:20.70 bitrate=1721.6kbits/s speed=6.43x    frame=  583 fps=156 q=32.0 size=    5120kB time=00:00:24.20 bitrate=1732.6kbits/s speed=6.47x    frame=  662 fps=155 q=32.0 size=    5888kB time=00:00:27.58 bitrate=1748.7kbits/s speed=6.44x    frame=  742 fps=154 q=32.0 size=    6912kB time=00:00:30.91 bitrate=1831.5kbits/s speed=6.43x    frame=  832 fps=156 q=32.0 size=    7680kB time=00:00:34.50 bitrate=1823.6kbits/s speed=6.45x    frame=  915 fps=155 q=32.0 size=    8448kB time=00:00:38.12 bitrate=1815.2kbits/s speed=6.46x    frame=  998 fps=155 q=32.0 size=    9216kB time=00:00:41.58 bitrate=1815.6kbits/s speed=6.48x    frame= 1063 fps=153 q=32.0 size=    9728kB time=00:00:44.29 bitrate=1799.3kbits/s speed=6.38x    frame= 1126 fps=151 q=32.0 size=   10240kB time=00:00:46.91 bitrate=1788.0kbits/s speed=6.28x    frame= 1197 fps=150 q=32.0 size=   11008kB time=00:00:49.70 bitrate=1814.1kbits/s speed=6.22x    frame= 1280 fps=149 q=32.0 size=   11776kB time=00:00:53.33 bitrate=1808.8kbits/s speed=6.23x    frame= 1362 fps=150 q=31.0 size=   12544kB time=00:00:56.75 bitrate=1810.8kbits/s speed=6.24x    frame= 1453 fps=151 q=31.0 size=   13312kB time=00:01:00.37 bitrate=1806.2kbits/s speed=6.28x    frame= 1537 fps=151 q=31.0 size=   14080kB time=00:01:03.91 bitrate=1804.6kbits/s speed=6.28x    frame= 1633 fps=152 q=31.0 size=   14848kB time=00:01:07.91 bitrate=1790.9kbits/s speed=6.32x    frame= 1728 fps=153 q=31.0 size=   15616kB time=00:01:11.91 bitrate=1778.8kbits/s speed=6.36x    frame= 1825 fps=154 q=31.0 size=   16640kB time=00:01:15.75 bitrate=1799.5kbits/s speed=6.39x    frame= 1913 fps=154 q=31.0 size=   17408kB time=00:01:19.70 bitrate=1789.1kbits/s speed=6.42x    frame= 2001 fps=155 q=31.0 size=   18176kB time=00:01:23.37 bitrate=1785.9kbits/s speed=6.44x    frame= 2091 fps=155 q=31.0 size=   18944kB time=00:01:27.04 bitrate=1782.9kbits/s speed=6.46x    frame= 2181 fps=156 q=31.0 size=   19712kB time=00:01:30.66 bitrate=1781.0kbits/s speed=6.48x    frame= 2273 fps=156 q=31.0 size=   20480kB time=00:01:34.62 bitrate=1773.0kbits/s speed=6.51x    frame= 2358 fps=157 q=31.0 size=   21248kB time=00:01:38.25 bitrate=1771.6kbits/s speed=6.52x    frame= 2450 fps=157 q=31.0 size=   22016kB time=00:01:42.08 bitrate=1766.7kbits/s speed=6.55x    frame= 2546 fps=158 q=31.0 size=   22784kB time=00:01:45.79 bitrate=1764.3kbits/s speed=6.56x    frame= 2642 fps=158 q=31.0 size=   23552kB time=00:01:49.87 bitrate=1756.0kbits/s speed=6.58x    frame= 2733 fps=158 q=31.0 size=   24320kB time=00:01:53.83 bitrate=1750.2kbits/s speed= 6.6x    frame= 2822 fps=159 q=31.0 size=   25088kB time=00:01:57.58 bitrate=1747.9kbits/s speed=6.61x    [out#0/mp4 @ 000001eb5c76c940] video:23684kB audio:1859kB subtitle:0kB other streams:0kB global headers:0kB muxing overhead: 0.234017%
frame= 2858 fps=159 q=-1.0 Lsize=   25603kB time=00:01:59.08 bitrate=1761.3kbits/s speed=6.63x    
[libx264 @ 000001eb5cd60840] frame I:2858  Avg QP:26.23  size:  8486
[libx264 @ 000001eb5cd60840] mb I  I16..4: 68.5% 30.0%  1.4%
[libx264 @ 000001eb5cd60840] 8x8 transform intra:30.0%
[libx264 @ 000001eb5cd60840] coded y,uvDC,uvAC intra: 19.3% 15.1% 0.2%
[libx264 @ 000001eb5cd60840] i16 v,h,dc,p: 35% 37% 17% 11%
[libx264 @ 000001eb5cd60840] i8 v,h,dc,ddl,ddr,vr,hd,vl,hu: 28% 16% 29%  4%  4%  5%  6%  4%  4%
[libx264 @ 000001eb5cd60840] i4 v,h,dc,ddl,ddr,vr,hd,vl,hu: 23% 16% 23%  7%  7%  8%  6%  5%  5%
[libx264 @ 000001eb5cd60840] i8c dc,h,v,p: 78% 10% 11%  1%
[libx264 @ 000001eb5cd60840] kb/s:1629.25
[aac @ 000001eb5c716080] Qavg: 58272.910
